<?xml version="1.0" encoding="utf-8"?>
<!-- Generator: Adobe Illustrator 27.5.0, SVG Export Plug-In . SVG Version: 6.00 Build 0)  -->
<svg version="1.1" xmlns="http://www.w3.org/2000/svg" xmlns:xlink="http://www.w3.org/1999/xlink" x="0px" y="0px"
	 viewBox="0 0 2500 2500" style="enable-background:new 0 0 2500 2500;" xml:space="preserve">
<g id="Background">
	<rect style="fill:#E6DBD2;" width="2500" height="2500"/>
</g>
<g id="Illustration">
	<g id="Immunization_schedule_1_">
		<circle style="fill:#F2E6DC;" cx="1250" cy="1250" r="915"/>
		<g>
			<path style="fill:#F7F1EB;" d="M746.057,779.235c-45.498-70.653-95.806-130.622-143.876-174.551l-5.008,121.256l-37.306-156.202
				c-55.404-40.679-104.534-55.854-135.144-36.143c-63.694,41.016-23.097,217.494,90.677,394.173
				c113.774,176.68,257.641,286.656,321.335,245.64C900.428,1132.392,859.83,955.914,746.057,779.235z"/>
			<path style="fill:#E6D0BE;" d="M1006.969,849.163l-77.87,55.808l69.255-94.14C959.415,655.25,882.493,544.846,816.709,557.083
				c-72.609,13.507-104.154,171.306-70.458,352.454c33.697,181.149,119.874,317.049,192.483,303.543
				c72.609-13.506,104.154-171.305,70.458-352.454C1008.478,856.781,1007.73,852.966,1006.969,849.163z"/>
			<path style="fill:#E6D0BE;" d="M545.551,1112.224l68.013-17.954l-85.673-4.855c-69.821-94.825-96.307-190.006-58.605-221.506
				c41.614-34.768,145.666,21.209,232.408,125.029c86.742,103.82,123.325,216.168,81.711,250.937
				c-41.614,34.768-145.667-21.209-232.408-125.029C549.156,1116.642,547.347,1114.434,545.551,1112.224z"/>
			<path style="fill:#E6D0BE;" d="M836.111,1174.719c-0.367,0-0.721-0.203-0.897-0.554C736.631,976.267,640.927,830.983,578,743.952
				c-68.165-94.276-113.587-142.363-114.037-142.837c-0.381-0.401-0.364-1.033,0.036-1.414c0.401-0.381,1.034-0.364,1.413,0.036
				c0.452,0.476,45.966,48.659,114.208,143.043c62.971,87.092,158.74,232.474,257.386,430.493c0.246,0.494,0.045,1.095-0.449,1.341
				C836.413,1174.685,836.261,1174.719,836.111,1174.719z"/>
			<path style="fill:#FFFFFF;" d="M1040.685,1590.483c-0.418,0-0.808-0.264-0.948-0.682
				c-87.513-260.691-141.462-494.169-171.31-644.127c-32.342-162.488-44.141-264.651-44.256-265.664
				c-0.063-0.549,0.331-1.044,0.88-1.107c0.557-0.065,1.044,0.332,1.106,0.881c0.116,1.012,11.908,103.114,44.236,265.528
				c29.836,149.895,83.764,383.274,171.239,643.854c0.176,0.524-0.106,1.09-0.63,1.266
				C1040.897,1590.466,1040.79,1590.483,1040.685,1590.483z"/>
			<path style="fill:#FFFFFF;" d="M983.45,1606.468c-0.404,0-0.785-0.248-0.936-0.648
				c-80.299-213.526-196.074-384.356-279.058-490.064c-91.718-116.834-165.94-183.315-169.998-184.805
				c-0.539-0.124-0.856-0.655-0.732-1.193c0.124-0.539,0.684-0.868,1.218-0.745c4.829,1.109,81.024,70.961,170.18,184.356
				c53.164,67.617,102.169,139.147,145.655,212.604c53.906,91.059,99.195,184.976,134.608,279.145
				c0.194,0.517-0.067,1.094-0.585,1.288C983.687,1606.447,983.567,1606.468,983.45,1606.468z"/>
		</g>
		<g>
			<polygon style="opacity:0.5;fill:#FFFFFF;" points="2099.127,1194.499 1018.8,1194.499 1018.8,410.639 2099.882,412.839
				2099.127,575.172 			"/>
			<g>
				<rect x="1063.735" y="578.471" style="fill:#E6D0BE;" width="236.706" height="44.877"/>
				<rect x="1063.735" y="652.625" style="fill:#E6D0BE;" width="236.706" height="44.877"/>
				<rect x="1064.402" y="729.146" style="fill:#E6D0BE;" width="236.706" height="44.877"/>
				<rect x="1064.402" y="803.3" style="fill:#E6D0BE;" width="236.706" height="44.877"/>
				<rect x="1066.407" y="876.148" style="fill:#E6D0BE;" width="236.706" height="44.877"/>
				<rect x="1066.407" y="950.302" style="fill:#E6D0BE;" width="236.706" height="44.877"/>
				<rect x="1066.407" y="1020.196" style="fill:#E6D0BE;" width="236.706" height="44.877"/>
				<rect x="1066.407" y="1094.35" style="fill:#E6D0BE;" width="236.706" height="44.877"/>
			</g>
			<g>
				<rect x="1346.46" y="578.468" style="fill:#FFFFFF;" width="79.958" height="44.877"/>
				<rect x="1346.46" y="652.622" style="fill:#FFFFFF;" width="79.958" height="44.877"/>
				<rect x="1346.686" y="729.143" style="fill:#D87355;" width="79.958" height="44.877"/>
				<rect x="1346.686" y="803.297" style="fill:#FFFFFF;" width="79.958" height="44.877"/>
				<rect x="1347.363" y="876.145" style="fill:#FFFFFF;" width="79.958" height="44.877"/>
				<rect x="1347.363" y="950.299" style="fill:#FFFFFF;" width="79.958" height="44.877"/>
				<rect x="1347.363" y="1020.193" style="fill:#0099D0;" width="79.958" height="44.877"/>
				<rect x="1347.363" y="1094.347" style="fill:#FFFFFF;" width="79.958" height="44.877"/>
			</g>
			<g>
				<rect x="1450.822" y="579.204" style="fill:#FFFFFF;" width="79.958" height="44.877"/>
				<rect x="1450.822" y="653.359" style="fill:#FFFFFF;" width="79.958" height="44.877"/>
				<rect x="1451.047" y="729.879" style="fill:#D87355;" width="79.958" height="44.877"/>
				<rect x="1451.047" y="804.034" style="fill:#FFFFFF;" width="79.958" height="44.877"/>
				<rect x="1451.724" y="876.881" style="fill:#E2A18D;" width="79.958" height="44.877"/>
				<rect x="1451.724" y="951.036" style="fill:#FFFFFF;" width="79.958" height="44.877"/>
				<rect x="1451.724" y="1020.929" style="fill:#FFFFFF;" width="79.958" height="44.877"/>
				<rect x="1451.724" y="1095.084" style="fill:#FFFFFF;" width="79.958" height="44.877"/>
			</g>
			<g>
				<rect x="1555.183" y="579.938" style="fill:#EFBC73;" width="79.958" height="44.877"/>
				<rect x="1555.183" y="654.092" style="fill:#FFFFFF;" width="79.958" height="44.877"/>
				<rect x="1555.409" y="730.613" style="fill:#D87355;" width="79.958" height="44.877"/>
				<rect x="1555.409" y="804.767" style="fill:#FFFFFF;" width="79.958" height="44.877"/>
				<rect x="1556.086" y="877.615" style="fill:#E2A18D;" width="79.958" height="44.877"/>
				<rect x="1556.086" y="951.769" style="fill:#FFFFFF;" width="79.958" height="44.877"/>
				<rect x="1556.086" y="1021.663" style="fill:#FFFFFF;" width="79.958" height="44.877"/>
				<rect x="1556.086" y="1095.817" style="fill:#FFFFFF;" width="79.958" height="44.877"/>
			</g>
			<g>
				<rect x="1659.545" y="580.674" style="fill:#0099D0;" width="79.958" height="44.877"/>
				<rect x="1659.545" y="654.828" style="fill:#0099D0;" width="79.958" height="44.877"/>
				<rect x="1659.77" y="731.349" style="fill:#FFFFFF;" width="79.958" height="44.877"/>
				<rect x="1659.77" y="805.504" style="fill:#FFFFFF;" width="79.958" height="44.877"/>
				<rect x="1660.447" y="878.351" style="fill:#FFFFFF;" width="79.958" height="44.877"/>
				<rect x="1660.447" y="952.505" style="fill:#FFFFFF;" width="79.958" height="44.877"/>
				<rect x="1660.447" y="1022.399" style="fill:#FFFFFF;" width="79.958" height="44.877"/>
				<rect x="1660.447" y="1096.554" style="fill:#FFFFFF;" width="79.958" height="44.877"/>
			</g>
			<g>
				<rect x="1763.906" y="579.938" style="fill:#FFFFFF;" width="79.958" height="44.877"/>
				<rect x="1763.906" y="654.092" style="fill:#0099D0;" width="79.958" height="44.877"/>
				<rect x="1764.132" y="730.613" style="fill:#FFFFFF;" width="79.958" height="44.877"/>
				<rect x="1764.132" y="804.767" style="fill:#FFFFFF;" width="79.958" height="44.877"/>
				<rect x="1764.809" y="877.615" style="fill:#EFBC73;" width="79.958" height="44.877"/>
				<rect x="1764.809" y="951.769" style="fill:#FFFFFF;" width="79.958" height="44.877"/>
				<rect x="1764.809" y="1021.663" style="fill:#FFFFFF;" width="79.958" height="44.877"/>
				<rect x="1764.809" y="1095.817" style="fill:#E2A18D;" width="79.958" height="44.877"/>
			</g>
			<g>
				<rect x="1868.268" y="580.674" style="fill:#FFFFFF;" width="79.958" height="44.877"/>
				<rect x="1868.268" y="654.828" style="fill:#FFFFFF;" width="79.958" height="44.877"/>
				<rect x="1868.493" y="731.349" style="fill:#FFFFFF;" width="79.958" height="44.877"/>
				<rect x="1868.493" y="805.504" style="fill:#FFFFFF;" width="79.958" height="44.877"/>
				<rect x="1869.17" y="878.351" style="fill:#EFBC73;" width="79.958" height="44.877"/>
				<rect x="1869.17" y="952.505" style="fill:#FFFFFF;" width="79.958" height="44.877"/>
				<rect x="1869.17" y="1022.399" style="fill:#FFFFFF;" width="79.958" height="44.877"/>
				<rect x="1869.17" y="1096.554" style="fill:#FFFFFF;" width="79.958" height="44.877"/>
			</g>
			<g>
				<rect x="1972.629" y="581.408" style="fill:#E2A18D;" width="79.958" height="44.877"/>
				<rect x="1972.629" y="655.562" style="fill:#EFBC73;" width="79.958" height="44.877"/>
				<rect x="1972.854" y="732.083" style="fill:#FFFFFF;" width="79.958" height="44.877"/>
				<rect x="1972.854" y="806.237" style="fill:#FFFFFF;" width="79.958" height="44.877"/>
				<rect x="1973.532" y="879.085" style="fill:#EFBC73;" width="79.958" height="44.877"/>
				<rect x="1973.532" y="953.239" style="fill:#FFFFFF;" width="79.958" height="44.877"/>
				<rect x="1973.532" y="1023.133" style="fill:#E2A18D;" width="79.958" height="44.877"/>
				<rect x="1973.532" y="1097.287" style="fill:#FFFFFF;" width="79.958" height="44.877"/>
			</g>
			<path style="fill:#84524D;" d="M2142.063,1235.183H982.422c-0.553,0-1-0.448-1-1V410.639c0-0.265,0.105-0.52,0.294-0.708
				c0.188-0.187,0.441-0.292,0.706-0.292c0.001,0,0.001,0,0.002,0l1160.452,2.312c0.266,0,0.521,0.107,0.708,0.295
				c0.187,0.189,0.291,0.444,0.29,0.71l-0.811,170.551v650.677C2143.063,1234.736,2142.616,1235.183,2142.063,1235.183z
				 M983.422,1233.183h1157.642V583.501l0.806-169.553l-1158.447-2.308V1233.183z"/>
			<rect x="978.807" y="407.024" style="fill:#D87355;" width="1167.606" height="108.174"/>
		</g>
		<g>
			<path style="fill:#E2A18D;" d="M634.318,1926.88C796.863,2074.815,1012.899,2165,1250,2165s453.137-90.185,615.682-238.12
				H634.318z"/>
			<g>
				<path style="fill:#0099D0;" d="M2126.573,1640.031h-277.022c-0.553,0-1-0.448-1-1s0.447-1,1-1h277.022c0.553,0,1,0.448,1,1
					S2127.126,1640.031,2126.573,1640.031z"/>
				<path style="fill:#0099D0;" d="M2067.735,1696.809h-218.185c-0.553,0-1-0.448-1-1s0.447-1,1-1h218.185c0.553,0,1,0.448,1,1
					S2068.288,1696.809,2067.735,1696.809z"/>
				<path style="fill:#0099D0;" d="M2104.509,1748.239h-254.958c-0.553,0-1-0.448-1-1s0.447-1,1-1h254.958c0.553,0,1,0.448,1,1
					S2105.062,1748.239,2104.509,1748.239z"/>
				<path style="fill:#0099D0;" d="M2024.944,1802.342h-175.394c-0.553,0-1-0.448-1-1s0.447-1,1-1h175.394c0.553,0,1,0.448,1,1
					S2025.497,1802.342,2024.944,1802.342z"/>
			</g>
			<g>
				<g>
					<path style="opacity:0.5;fill:#FFFFFF;" d="M1348.486,1977.132l173.563-1.039l-1.571-262.386
						c-0.091-15.268-12.543-27.571-27.81-27.479l-3.34-65.715l-117.513-1.588l0.268,68.026
						c-13.991,0.084-25.265,11.494-25.181,25.485L1348.486,1977.132z"/>

						<rect x="1361.864" y="1810.485" transform="matrix(-1 0.006 -0.006 -1 2885.5837 3777.52)" style="fill:#EFBC73;" width="150.546" height="165.188"/>
					<path style="fill:#9E6C5A;" d="M1339.899,1997.331c-0.263,0-0.516-0.104-0.703-0.289c-0.188-0.187-0.295-0.44-0.297-0.706
						l-1.744-291.294c-0.047-7.713,2.914-14.983,8.336-20.47c5.187-5.25,12.032-8.266,19.369-8.558l-0.302-50.36
						c-0.002-0.265,0.103-0.52,0.289-0.708c0.186-0.189,0.439-0.296,0.705-0.297l132.701-0.795c0.002,0,0.004,0,0.006,0
						c0.55,0,0.997,0.444,1,0.994l0.302,50.358c8.021,0.2,15.541,3.396,21.273,9.061c5.971,5.899,9.287,13.771,9.337,22.165
						l1.729,288.75c0.003,0.552-0.441,1.002-0.994,1.006l-191.002,1.144C1339.903,1997.331,1339.901,1997.331,1339.899,1997.331z
						 M1366.564,1626.643l0.302,50.343c0.002,0.265-0.103,0.52-0.289,0.709c-0.186,0.188-0.439,0.295-0.705,0.297
						c-7.18,0.043-13.912,2.879-18.958,7.986c-5.047,5.107-7.802,11.873-7.759,19.053l1.738,290.294l189.002-1.132l-1.724-287.75
						c-0.047-7.859-3.151-15.229-8.742-20.753c-5.548-5.481-12.884-8.494-20.676-8.494c-0.062,0-0.134-0.009-0.187,0
						c-0.55,0-0.997-0.444-1-0.994l-0.302-50.343L1366.564,1626.643z"/>

						<rect x="1337.624" y="1594.908" transform="matrix(-1 0.006 -0.006 -1 2875.9048 3223.6934)" style="fill:#D87355;" width="191.006" height="42.487"/>
				</g>
				<g>

						<rect x="1638.01" y="1503.998" transform="matrix(-1 0.0046 -0.0046 -1 3345.9736 3458.2998)" style="fill:#FFFFFF;" width="61.973" height="458.024"/>
					<path style="fill:#9E6C5A;" d="M1590.698,1811.37c-0.264,0-0.517-0.104-0.704-0.29c-0.188-0.187-0.295-0.44-0.296-0.706
						l-2.697-584.43c-0.002-0.386,0.219-0.738,0.566-0.906l78.484-37.777c0.271-0.13,0.588-0.131,0.859-0.004l78.829,37.051
						c0.349,0.164,0.572,0.514,0.574,0.9l2.697,584.43c0.003,0.552-0.443,1.002-0.995,1.004l-157.313,0.726
						C1590.701,1811.37,1590.7,1811.37,1590.698,1811.37z M1589.004,1226.567l2.689,582.797l155.313-0.716l-2.689-582.798
						l-77.827-36.58L1589.004,1226.567z"/>
					<polygon style="fill:#EFBC73;" points="1598.129,1504.323 1737.454,1503.68 1736.202,1232.284 1666.535,1199.682
						1596.876,1232.927 					"/>

						<rect x="1540.688" y="1804.911" transform="matrix(-1 0.0046 -0.0046 -1 3347.187 3633.4834)" style="fill:#FFFFFF;" width="257.425" height="31.385"/>

						<rect x="1565.232" y="1952.485" transform="matrix(-1 0.0046 -0.0046 -1 3349.3103 3940.146)" style="fill:#FFFFFF;" width="209.754" height="42.904"/>
					<path style="fill:#363E44;" d="M1666.111,1108.803c-0.55,0-0.997-0.445-1-0.995l-1.298-281.243
						c-0.003-0.552,0.443-1.002,0.995-1.005c0.552,0.01,1.001,0.443,1.005,0.995l1.298,281.243c0.003,0.552-0.443,1.002-0.995,1.005
						C1666.114,1108.803,1666.112,1108.803,1666.111,1108.803z"/>
					<path style="fill:#363E44;" d="M1588.17,1264.21c-0.55,0-0.997-0.445-1-0.996c-0.003-0.552,0.443-1.002,0.995-1.004
						l45.756-0.211c0.002,0,0.004,0,0.005,0c0.55,0,0.997,0.445,1,0.996c0.003,0.552-0.443,1.002-0.995,1.004l-45.756,0.211
						C1588.173,1264.21,1588.171,1264.21,1588.17,1264.21z"/>
					<path style="fill:#363E44;" d="M1588.508,1337.372c-0.55,0-0.997-0.445-1-0.996c-0.003-0.552,0.443-1.002,0.995-1.004
						l45.756-0.211c0.002,0,0.004,0,0.005,0c0.55,0,0.997,0.445,1,0.996c0.003,0.552-0.443,1.002-0.995,1.004l-45.756,0.211
						C1588.511,1337.372,1588.509,1337.372,1588.508,1337.372z"/>
					<path style="fill:#363E44;" d="M1588.846,1410.534c-0.55,0-0.997-0.445-1-0.996c-0.003-0.552,0.443-1.002,0.995-1.004
						l45.756-0.211c0.002,0,0.004,0,0.005,0c0.55,0,0.997,0.445,1,0.996c0.003,0.552-0.443,1.002-0.995,1.004l-45.756,0.211
						C1588.849,1410.534,1588.847,1410.534,1588.846,1410.534z"/>
					<path style="fill:#363E44;" d="M1589.183,1483.695c-0.55,0-0.997-0.445-1-0.996c-0.003-0.552,0.443-1.002,0.995-1.004
						l45.757-0.211c0.002,0,0.004,0,0.005,0c0.55,0,0.997,0.445,1,0.996c0.003,0.552-0.443,1.002-0.995,1.004l-45.757,0.211
						C1589.186,1483.695,1589.184,1483.695,1589.183,1483.695z"/>
					<path style="fill:#363E44;" d="M1589.521,1556.857c-0.55,0-0.997-0.445-1-0.996c-0.003-0.552,0.443-1.002,0.995-1.004
						l45.756-0.211c0.002,0,0.004,0,0.005,0c0.55,0,0.997,0.445,1,0.996c0.003,0.552-0.443,1.002-0.995,1.004l-45.756,0.211
						C1589.523,1556.857,1589.521,1556.857,1589.521,1556.857z"/>
					<path style="fill:#363E44;" d="M1589.858,1630.019c-0.55,0-0.997-0.445-1-0.996c-0.003-0.552,0.443-1.002,0.995-1.004
						l45.756-0.211c0.002,0,0.004,0,0.005,0c0.55,0,0.997,0.445,1,0.996c0.003,0.552-0.443,1.002-0.995,1.004l-45.756,0.211
						C1589.861,1630.019,1589.859,1630.019,1589.858,1630.019z"/>
					<path style="fill:#363E44;" d="M1590.196,1703.18c-0.55,0-0.997-0.445-1-0.996c-0.003-0.552,0.443-1.002,0.995-1.004
						l45.756-0.211c0.002,0,0.004,0,0.005,0c0.55,0,0.997,0.445,1,0.996c0.003,0.552-0.443,1.002-0.995,1.004l-45.756,0.211
						C1590.199,1703.18,1590.197,1703.18,1590.196,1703.18z"/>
					<path style="fill:#E2A18D;" d="M1565.332,1996.874c-0.55,0-0.997-0.445-1-0.996l-0.198-42.904
						c-0.001-0.265,0.103-0.52,0.29-0.708c0.187-0.188,0.44-0.295,0.705-0.296l209.752-0.968c0.002,0,0.004,0,0.005,0
						c0.55,0,0.997,0.445,1,0.996l0.198,42.904c0.001,0.265-0.103,0.52-0.29,0.708c-0.187,0.188-0.44,0.295-0.705,0.296
						l-209.752,0.968C1565.335,1996.874,1565.333,1996.874,1565.332,1996.874z M1566.139,1953.965l0.188,40.904l207.752-0.959
						l-0.188-40.904L1566.139,1953.965z"/>
					<path style="fill:#9E6C5A;" d="M1540.762,1837.89c-0.264,0-0.517-0.104-0.704-0.29c-0.188-0.187-0.295-0.44-0.296-0.706
						l-0.145-31.385c-0.003-0.552,0.443-1.002,0.995-1.004c0.002,0,0.004,0,0.005,0c0.55,0,0.997,0.445,1,0.996l0.14,30.385
						l239.613-1.106c0.002,0,0.003,0,0.005,0c0.55,0,0.997,0.445,1,0.996c0.003,0.552-0.443,1.002-0.995,1.004l-240.613,1.11
						C1540.765,1837.89,1540.764,1837.89,1540.762,1837.89z"/>
					<path style="fill:#E2A18D;" d="M1781.375,1836.78c-0.55,0-0.997-0.445-1-0.996c-0.003-0.552,0.443-1.002,0.995-1.004
						l4.447-0.021c0.002,0,0.004,0,0.005,0c0.55,0,0.997,0.445,1,0.996c0.003,0.552-0.443,1.002-0.995,1.004l-4.447,0.021
						C1781.378,1836.78,1781.376,1836.78,1781.375,1836.78z"/>
					<polygon style="fill:#D87355;" points="1640.381,1215.035 1692.83,1214.792 1692.325,1105.412 1665.966,1076.269
						1639.876,1105.655 					"/>
				</g>
			</g>
		</g>
		<g>
			<path style="fill:#EFBC73;" d="M992.304,1596.963c77.385,164.841,154.187,431.208,166.79,565.036H538.882
				c-19.89-95.179,17.997-372.157,121.675-547.434L992.304,1596.963z"/>
			<g>
				<path style="fill:#E2A18D;" d="M482.514,1482.949c-46.542,67.572-192.799,254.364-113.701,314.903
					c65.426,50.075,199.836-138.121,250.403-202.224C573.649,1558.068,528.082,1520.509,482.514,1482.949z"/>
				<path style="fill:#EFBC73;" d="M436.671,1501.486c0,0,184.097-188.179,329.817-225.09
					c114.237-28.937,210.511-30.121,356.086,19.17l-41.639,167.754l-39.316,12.286c31.251,72.031,3.413,134.929,22.177,197.474
					l-486.239,33.406l9.861-59.096l-29.18,26.617L436.671,1501.486z"/>
				<g>
					<polygon style="fill:#FFFFFF;" points="692.224,1305.506 845.881,2161.998 496.929,2161.998 591.943,1357.985 					"/>
					<path style="fill:#363E44;" d="M691.892,1586.363c-0.28,0-0.56-0.118-0.758-0.347l-33.888-39.316
						c-0.214-0.249-0.293-0.587-0.21-0.905l27.781-106.571l-62.931-14.803c-0.286-0.067-0.527-0.256-0.661-0.518
						c-0.134-0.261-0.146-0.567-0.034-0.838l35.354-85.447c0.212-0.511,0.797-0.752,1.306-0.542
						c0.511,0.211,0.753,0.796,0.542,1.306l-34.904,84.361l62.782,14.769c0.263,0.062,0.489,0.227,0.628,0.458
						c0.139,0.23,0.179,0.508,0.111,0.769l-27.907,107.054l33.546,38.919c0.36,0.418,0.313,1.05-0.104,1.41
						C692.356,1586.284,692.123,1586.363,691.892,1586.363z"/>
				</g>
				<g>
					<g>
						<path style="fill:#E2A18D;" d="M952.869,1443.849c80.325,16.736,309.185,79.227,334.362-17.145
							c20.825-79.714-204.741-130.739-283.428-152.53C986.825,1330.732,969.846,1387.291,952.869,1443.849z"/>
						<g>
							<path style="fill:#84524D;" d="M1145.37,1357.056c0,0,180.446-108.194,242.445-140.128
								c65.112-33.536,166.127-73.57,171.545-59.367c3.086,8.09-9.562,16.399-44.844,36.358c2.793,0.774,10.672,5.213,12.304,13.187
								c2.415,11.798-6.583,16.367-7.182,17.144c0.968,0.186,11.884,2.894,14.839,10.519c3.327,8.588-0.037,15.645-5.198,20.707
								c2.389,0.537,12.138,4.484,14.606,11.948c3.209,9.704-4.246,18.216-11.804,21.968c-13.866,6.884-52.221,24.75-71.298,36.79
								c-37.542,23.691-159.566,125.719-222.875,145.618C1239.795,1414.393,1145.37,1357.056,1145.37,1357.056z"/>
							<path style="fill:#363E44;" d="M1426.088,1287.784c-0.247,0-0.494-0.091-0.688-0.274c-0.401-0.38-0.418-1.013-0.038-1.414
								c10.92-11.526,14.587-23.879,17.533-33.805c2.97-10.007,5.316-17.911,14.118-18.588c6.131-0.471,13.01-3.963,20.443-10.376
								c2.177-1.878,2.247-4.446,1.586-6.222c-0.669-1.801-2.425-3.726-5.344-3.726h-47.611c-0.553,0-1-0.448-1-1s0.447-1,1-1
								h47.611c3.249,0,6.083,1.974,7.219,5.029c1.142,3.071,0.316,6.302-2.154,8.434c-7.765,6.699-15.03,10.351-21.596,10.856
								c-7.431,0.572-9.39,7.172-12.355,17.163c-3.007,10.13-6.749,22.738-17.999,34.612
								C1426.617,1287.679,1426.353,1287.784,1426.088,1287.784z"/>
							<path style="fill:#363E44;" d="M1504.215,1293.984c-0.367,0-0.72-0.202-0.896-0.553c-5.797-11.594-1.596-25.841,9.563-32.435
								l0.091-0.054l-8.807,2.936c-7.437,2.478-15.571-0.708-19.345-7.572c-2.127-3.866-2.591-8.32-1.307-12.541
								c1.284-4.22,4.149-7.661,8.068-9.688l8.639-4.469c-5.763,0.736-11.578-2.456-13.876-8.038
								c-2.554-6.202-0.048-13.316,5.829-16.548l15.277-8.402c0.482-0.266,1.092-0.089,1.357,0.394
								c0.267,0.484,0.09,1.092-0.395,1.358l-15.277,8.402c-4.983,2.741-7.108,8.774-4.942,14.034
								c2.298,5.582,8.744,8.343,14.371,6.155l11.205-4.358c0.496-0.191,1.056,0.036,1.273,0.521c0.219,0.485,0.021,1.056-0.452,1.3
								l-22.092,11.427c-3.435,1.777-5.947,4.793-7.072,8.493c-1.126,3.701-0.72,7.605,1.145,10.995
								c3.311,6.019,10.44,8.811,16.96,6.639l17.725-5.908c0.482-0.16,1.014,0.068,1.227,0.534c0.212,0.465,0.039,1.016-0.401,1.276
								l-8.184,4.836c-10.26,6.062-14.121,19.16-8.792,29.818c0.247,0.494,0.047,1.095-0.447,1.342
								C1504.518,1293.95,1504.365,1293.984,1504.215,1293.984z"/>
						</g>
					</g>
					<g>
						<path style="fill:#FFFFFF;" d="M857.453,1256.253l126.832,905.745h225.323l-154.599-681.822l126.796,24.811
							c34.884,6.826,71.01-1.926,98.903-23.959l154.544-122.08l-98.319-131.112l-114.18,70.93
							c-17.714,11.004-39.598,12.868-58.919,5.023C1109.535,1281.741,987.771,1241.108,857.453,1256.253z"/>
						<path style="fill:#363E44;" d="M952.87,1750.239c-0.039,0-0.078-0.002-0.118-0.007c-0.549-0.065-0.94-0.562-0.876-1.11
							l30.55-258.498l-66.932-91.021c-0.297-0.404-0.249-0.966,0.113-1.313l48.374-46.46l-82.756-75.328
							c-0.409-0.372-0.438-1.004-0.066-1.413c0.373-0.409,1.005-0.438,1.412-0.066l83.547,76.048
							c0.205,0.187,0.323,0.45,0.327,0.727s-0.107,0.542-0.308,0.734l-48.513,46.593l66.646,90.633
							c0.15,0.204,0.217,0.458,0.188,0.709l-30.596,258.89C953.802,1749.865,953.37,1750.239,952.87,1750.239z"/>
					</g>
				</g>
				<g>
					<g>
						<g>

								<rect x="510.888" y="1628.942" transform="matrix(0.7071 0.7071 -0.7071 0.7071 1510.2264 57.6216)" style="fill:#0099D0;" width="349.339" height="445.747"/>
							<g>
								<path style="fill:#363E44;" d="M832.456,1793.577c-0.256,0-0.512-0.098-0.707-0.293l-96.249-96.25
									c-0.391-0.391-0.391-1.023,0-1.414s1.023-0.391,1.414,0l96.249,96.25c0.391,0.391,0.391,1.023,0,1.414
									C832.968,1793.479,832.712,1793.577,832.456,1793.577z"/>
								<path style="fill:#363E44;" d="M788.142,1837.892c-0.256,0-0.512-0.098-0.707-0.293l-96.25-96.25
									c-0.391-0.391-0.391-1.023,0-1.414c0.391-0.391,1.023-0.391,1.414,0l96.25,96.25c0.391,0.391,0.391,1.023,0,1.414
									C788.653,1837.794,788.398,1837.892,788.142,1837.892z"/>
								<path style="fill:#363E44;" d="M799.221,1804.656c-0.256,0-0.512-0.098-0.707-0.293l-74.093-74.092
									c-0.391-0.391-0.391-1.023,0-1.414s1.023-0.391,1.414,0l74.093,74.092c0.391,0.391,0.391,1.023,0,1.414
									C799.732,1804.558,799.477,1804.656,799.221,1804.656z"/>
							</g>
						</g>
						<g>
							<path style="fill:#84524D;" d="M530.381,1710.08c66.176,52.879,228.182,169.692,243.542,181.724
								c28.714,22.493,91.237,68.725,80.193,91.185c-3.673,7.47-12.319,12.183-22.256,12.761
								c3.042,10.235-0.198,21.184-8.125,27.642c-10.417,8.487-23.261,4.603-24.199,4.302c3.377,7.549,2.808,16.125-1.768,22.106
								c-6.314,8.253-19.488,10.559-30.145,3.891c-0.213,2.335-1.257,10.624-8.083,16.65c-7.563,6.677-19.169,7.878-29.366,2.989
								c-25.527-19.964-70.405-44.578-122.288-77.291c-121.853-76.831-172.964-116.205-225.107-163.978
								c-20.225-18.53-49.535-62.149-30.848-120.23C411.893,1711.117,470.42,1710.794,530.381,1710.08z"/>
							<path style="fill:#363E44;" d="M555.484,1730.933c-0.215,0-0.431-0.069-0.613-0.211
								c-17.141-13.354-27.384-21.367-33.214-25.984c-0.433-0.343-0.506-0.972-0.163-1.405c0.343-0.432,0.973-0.506,1.405-0.163
								c5.825,4.613,16.065,12.624,33.2,25.974c0.436,0.34,0.514,0.968,0.175,1.404
								C556.077,1730.801,555.782,1730.933,555.484,1730.933z"/>
							<g>
								<path style="fill:#363E44;" d="M806.506,1961.313c-0.238,0-0.477-0.084-0.667-0.255c-0.411-0.368-0.446-1-0.078-1.412
									l10.704-11.959c0.37-0.412,1.003-0.445,1.412-0.078c0.411,0.368,0.446,1,0.078,1.412l-10.704,11.959
									C807.054,1961.2,806.78,1961.313,806.506,1961.313z"/>
								<path style="fill:#363E44;" d="M779.386,1991.698c-0.238,0-0.477-0.084-0.667-0.255c-0.411-0.368-0.446-1-0.078-1.412
									l10.705-11.959c0.369-0.412,1.001-0.446,1.412-0.078c0.411,0.368,0.446,1,0.078,1.412l-10.705,11.959
									C779.934,1991.586,779.66,1991.698,779.386,1991.698z"/>
								<path style="fill:#363E44;" d="M752.111,2022.943c-0.238,0-0.477-0.084-0.667-0.255c-0.411-0.368-0.446-1-0.078-1.412
									l10.705-11.96c0.369-0.412,1.003-0.445,1.412-0.078c0.411,0.368,0.446,1,0.078,1.412l-10.705,11.96
									C752.659,2022.831,752.386,2022.943,752.111,2022.943z"/>
								<path style="fill:#363E44;" d="M726.793,2050.769c-0.238,0-0.477-0.084-0.667-0.255c-0.411-0.368-0.446-1-0.078-1.412
									l10.705-11.959c0.369-0.412,1.003-0.446,1.412-0.078c0.411,0.368,0.446,1,0.078,1.412l-10.705,11.959
									C727.341,2050.656,727.067,2050.769,726.793,2050.769z"/>
							</g>
						</g>
					</g>
					<g>
						<path style="fill:#FFFFFF;" d="M568.928,1996.543c8.018,4.759,134.41-170.076,134.41-170.076l-164.457-122.513
							c0,0,62.351-72.723,61.802-77.637c-0.55-4.914-8.741-268.332-8.741-268.332s-215.94,152.022-245.985,294.543
							C315.911,1795.048,359.163,1872.043,568.928,1996.543z"/>
						<path style="fill:#363E44;" d="M398.274,1871.561c-0.267,0-0.533-0.106-0.73-0.317
							c-57.973-61.983-72.711-123.363-52.565-218.922c8.723-41.373,33.928-87.541,74.916-137.221
							c0.352-0.425,0.98-0.488,1.408-0.135c0.426,0.352,0.486,0.982,0.135,1.408c-40.781,49.429-65.847,95.308-74.502,136.361
							c-19.99,94.827-5.392,155.708,52.069,217.144c0.377,0.403,0.356,1.036-0.048,1.414
							C398.765,1871.472,398.52,1871.561,398.274,1871.561z"/>
						<path style="fill:#363E44;" d="M588.126,1741.64c-0.208,0-0.417-0.064-0.597-0.198l-49.245-36.686
							c-0.442-0.33-0.534-0.956-0.204-1.399c0.33-0.443,0.956-0.535,1.399-0.205l49.245,36.686c0.442,0.33,0.534,0.956,0.204,1.399
							C588.732,1741.5,588.432,1741.64,588.126,1741.64z"/>
					</g>
				</g>
			</g>
			<g>
				<path style="fill:#84524D;" d="M847.642,1292.932c4.836,16.223-21.696,38.453-59.262,49.652
					c-37.566,11.199-71.94,7.126-76.776-9.097c-4.836-16.223,21.696-38.453,59.262-49.652
					C808.432,1272.636,842.806,1276.709,847.642,1292.932z"/>
				<g>
					<path style="fill:#84524D;" d="M842.539,1215.35c-18.38,23.51-97.648-1.811-97.648-1.811l-61.185-67.592
						c-11.994-40.232,10.898-82.57,51.13-94.563c40.233-11.994,82.57,10.898,94.564,51.13
						C829.4,1102.514,861.259,1191.404,842.539,1215.35z"/>

						<rect x="708.995" y="1127.966" transform="matrix(0.9583 -0.2857 0.2857 0.9583 -318.2312 266.7265)" style="fill:#84524D;" width="92.111" height="192.175"/>
					<path style="fill:#84524D;" d="M826.739,1124.164c0,0,26.815,15.316,27.412,21.292c0.714,7.133-20.82,18.033-20.82,18.033
						S827.297,1124.054,826.739,1124.164z"/>
					<g>
						<path style="fill:#FFFFFF;" d="M760.068,1140.645c0,0,10.24-10.195,24.942-14.577c3.128-0.932,4.689,25.857,1.297,25.324
							C771.395,1149.053,760.068,1140.645,760.068,1140.645z"/>
						<path style="fill:#363E44;" d="M796.948,1151.877c19.815-1.435,34.876-16.43,34.876-16.43s-17.065-12.667-36.88-11.232
							c-3.47,0.251-6.782,0.935-9.905,1.865c-4.132,8.336-3.388,17.886,1.253,25.307
							C789.69,1151.921,793.271,1152.143,796.948,1151.877z"/>
					</g>
					<path style="fill:#363E44;" d="M816.005,1182.922c-1.088,0-2.185-0.153-3.259-0.469c-4.224-1.241-7.441-4.863-8.198-9.227
						c-0.095-0.544,0.271-1.062,0.814-1.156c0.54-0.094,1.063,0.27,1.156,0.814c0.628,3.619,3.293,6.621,6.792,7.65
						c3.631,1.068,7.584-0.112,10.068-3.004c0.362-0.419,0.993-0.466,1.41-0.106c0.419,0.36,0.467,0.991,0.107,1.41
						C822.634,1181.467,819.36,1182.922,816.005,1182.922z"/>
					<path style="fill:#363E44;" d="M803.795,1227.355c-0.021,0-0.042,0-0.063-0.002c-27.479-1.692-58.461-11.507-58.772-11.606
						c-0.525-0.168-0.816-0.731-0.647-1.257c0.168-0.526,0.727-0.817,1.257-0.648c0.307,0.098,31.059,9.838,58.285,11.515
						c0.551,0.034,0.971,0.508,0.936,1.06C804.76,1226.947,804.319,1227.355,803.795,1227.355z"/>
				</g>
				<g>
					<g>
						<path style="fill:#363E44;" d="M679.908,1192.11c-21.706-10.402-28.376-61.574-15.039-94.351
							c17.193-42.258,67.058-67.205,107.348-63.806c9.904,0.835,32.536,5.678,40.054,19.796
							c5.853,10.991-5.301,33.832-24.196,40.398c-26.567,9.231-63.797,3.084-50.036,33.358
							C779.735,1219.238,703.758,1203.541,679.908,1192.11z"/>
					</g>

						<ellipse transform="matrix(0.7071 -0.7071 0.7071 0.7071 -654.2838 719.2098)" style="fill:#363E44;" cx="541.021" cy="1149.395" rx="159.49" ry="159.49"/>
					<path style="fill:#363E44;" d="M558.742,1224.407c-69.526,0-126.09-56.564-126.09-126.09
						c0-69.527,56.563-126.091,126.09-126.091s126.091,56.564,126.091,126.091C684.833,1167.843,628.269,1224.407,558.742,1224.407z
						 M558.742,974.226c-68.424,0-124.09,55.667-124.09,124.091c0,68.424,55.666,124.09,124.09,124.09
						s124.091-55.667,124.091-124.09C682.833,1029.893,627.166,974.226,558.742,974.226z"/>
					<path style="fill:#FFFFFF;" d="M574.379,1286.953c-44.182,0-84.904-25.837-103.746-65.823c-0.235-0.5-0.022-1.095,0.478-1.331
						c0.498-0.236,1.095-0.021,1.33,0.478c18.514,39.289,58.526,64.676,101.938,64.676c49.613,0,92.839-31.801,107.56-79.133
						c0.164-0.527,0.724-0.823,1.252-0.658c0.527,0.164,0.822,0.724,0.658,1.252c-7.106,22.846-21.627,43.362-40.889,57.766
						C623.04,1279.078,599.325,1286.953,574.379,1286.953z"/>
				</g>
				<g>
					<path style="fill:#FFFFFF;" d="M801.052,1170.076c-5.884,0-11.686-2.25-16.666-6.525c-6.011-5.16-10.105-12.666-11.53-21.134
						c-1.424-8.468-0.011-16.899,3.981-23.742c4.026-6.902,10.188-11.367,17.351-12.572c7.159-1.207,14.445,0.998,20.51,6.203
						c6.011,5.16,10.105,12.666,11.53,21.133c1.424,8.468,0.011,16.899-3.981,23.742c-4.026,6.902-10.188,11.367-17.351,12.572
						C803.616,1169.969,802.331,1170.076,801.052,1170.076z M798.021,1107.783c-1.167,0-2.337,0.097-3.502,0.293
						c-6.566,1.105-12.233,5.227-15.955,11.607c-3.757,6.44-5.084,14.396-3.736,22.403c1.347,8.007,5.204,15.092,10.86,19.948
						c5.605,4.812,12.311,6.853,18.875,5.748c6.566-1.105,12.233-5.227,15.955-11.607c3.757-6.44,5.084-14.396,3.736-22.403
						c-1.347-8.007-5.204-15.092-10.861-19.948C808.784,1109.866,803.431,1107.783,798.021,1107.783z"/>
					<path style="fill:#FFFFFF;" d="M731.783,1153.523c-0.443,0-0.848-0.297-0.966-0.746c-0.141-0.534,0.178-1.081,0.712-1.221
						l39.612-10.424c0.536-0.139,1.081,0.178,1.222,0.713c0.141,0.534-0.178,1.081-0.712,1.221l-39.612,10.424
						C731.953,1153.512,731.868,1153.523,731.783,1153.523z"/>
					<path style="fill:#FFFFFF;" d="M825.601,1128.503c-0.198,0-0.399-0.059-0.573-0.182c-0.451-0.317-0.561-0.939-0.245-1.39
						c0.064-0.092,6.515-9.077,15.981-2.563c0.454,0.313,0.569,0.936,0.257,1.391c-0.314,0.455-0.934,0.571-1.392,0.257
						c-7.813-5.378-12.993,1.757-13.209,2.064C826.225,1128.355,825.915,1128.503,825.601,1128.503z"/>
				</g>
			</g>
		</g>
	</g>
</g>
</svg>
